<svg width="52" height="48" viewBox="0 0 52 48" fill="none" xmlns="http://www.w3.org/2000/svg">
<rect width="51.0185" height="48" fill="black" fill-opacity="0"/>
<path fill-rule="evenodd" clip-rule="evenodd" d="M25.508 0C11.421 0 0 11.018 0 24.609C0 35.4812 7.30742 44.7047 17.4451 47.9567C18.7218 48.1845 19.1862 47.4267 19.1862 46.7724C19.1862 46.1894 19.164 44.6429 19.1529 42.5872C12.0567 44.0756 10.5595 39.2878 10.5595 39.2878C9.39918 36.4453 7.72669 35.6894 7.72669 35.6894C5.41058 34.1638 7.90264 34.1934 7.90264 34.1934C10.4627 34.3682 11.8101 36.7286 11.8101 36.7286C14.085 40.4892 17.7813 39.4008 19.234 38.7749C19.4649 37.1817 20.1255 36.0996 20.8535 35.4831C15.1898 34.8622 9.23501 32.751 9.23501 23.3218C9.23501 20.6345 10.2286 18.4375 11.8598 16.7169C11.5989 16.0973 10.7217 13.5955 12.1104 10.2059C12.1104 10.2059 14.2518 9.54465 19.1261 12.7304C21.1596 12.1821 23.3423 11.9083 25.5119 11.9001C27.6782 11.9089 29.8615 12.1821 31.8977 12.7304C36.7687 9.54465 38.9069 10.2059 38.9069 10.2059C40.2987 13.5955 39.4223 16.0973 39.1606 16.7169C40.7958 18.4375 41.7822 20.6345 41.7822 23.3218C41.7822 32.7731 35.8189 34.8553 30.1362 35.4623C31.0507 36.2226 31.867 37.7275 31.867 40.0236C31.867 43.3115 31.8362 45.9647 31.8362 46.7718C31.8362 47.4311 32.2947 48.1977 33.5898 47.9536C43.7163 44.6946 51.0185 35.4781 51.0185 24.609C51.0185 11.018 39.5976 0 25.508 0Z" fill="#838282"/>
</svg>
