<svg width="52" height="48" viewBox="0 0 52 48" fill="none" xmlns="http://www.w3.org/2000/svg">
<rect width="51.0185" height="48" fill="black" fill-opacity="0" transform="translate(0.981506)"/>
<path d="M41.3712 0H11.6104C5.74111 0 0.981506 4.478 0.981506 10V38C0.981506 43.522 5.74111 48 11.6104 48H41.3712C47.2425 48 52 43.522 52 38V10C52 4.478 47.2425 0 41.3712 0ZM17.9877 38H11.6104V16H17.9877V38ZM14.799 13.464C12.7455 13.464 11.0789 11.884 11.0789 9.936C11.0789 7.988 12.7455 6.408 14.799 6.408C16.8525 6.408 18.5191 7.988 18.5191 9.936C18.5191 11.884 16.8546 13.464 14.799 13.464ZM43.4969 38H37.1196V26.792C37.1196 20.056 28.6165 20.566 28.6165 26.792V38H22.2392V16H28.6165V19.53C31.5841 14.358 43.4969 13.976 43.4969 24.482V38Z" fill="#838282"/>
</svg>
