<svg width="42" height="38" viewBox="0 0 52 48" fill="none" xmlns="http://www.w3.org/2000/svg">
<rect width="51.0185" height="48" fill="black" fill-opacity="0" transform="translate(0.212952)"/>
<path d="M34.2253 24C34.2253 21.7917 33.3949 19.9062 31.7342 18.3438C30.0734 16.7812 28.0694 16 25.7222 16C23.375 16 21.371 16.7812 19.7103 18.3438C18.0495 19.9062 17.2191 21.7917 17.2191 24C17.2191 26.2083 18.0495 28.0938 19.7103 29.6562C21.371 31.2188 23.375 32 25.7222 32C28.0694 32 30.0734 31.2188 31.7342 29.6562C33.3949 28.0938 34.2253 26.2083 34.2253 24ZM38.809 24C38.809 27.4167 37.5357 30.3229 34.9892 32.7188C32.4427 35.1146 29.3537 36.3125 25.7222 36.3125C22.0907 36.3125 19.0017 35.1146 16.4552 32.7188C13.9087 30.3229 12.6354 27.4167 12.6354 24C12.6354 20.5833 13.9087 17.6771 16.4552 15.2812C19.0017 12.8854 22.0907 11.6875 25.7222 11.6875C29.3537 11.6875 32.4427 12.8854 34.9892 15.2812C37.5357 17.6771 38.809 20.5833 38.809 24ZM42.3962 11.1875C42.3962 11.9792 42.0973 12.6562 41.4994 13.2188C40.9015 13.7812 40.1819 14.0625 39.3404 14.0625C38.499 14.0625 37.7793 13.7812 37.1814 13.2188C36.5836 12.6562 36.2846 11.9792 36.2846 11.1875C36.2846 10.3958 36.5836 9.71875 37.1814 9.15625C37.7793 8.59375 38.499 8.3125 39.3404 8.3125C40.1819 8.3125 40.9015 8.59375 41.4994 9.15625C42.0973 9.71875 42.3962 10.3958 42.3962 11.1875ZM25.7222 4.3125C25.5672 4.3125 24.7202 4.30729 23.1812 4.29688C21.6423 4.28646 20.4742 4.28646 19.677 4.29688C18.8799 4.30729 17.8115 4.33854 16.4718 4.39062C15.1321 4.44271 13.9917 4.54688 13.0506 4.70312C12.1095 4.85938 11.3179 5.05208 10.6757 5.28125C9.56856 5.69792 8.59425 6.30208 7.7528 7.09375C6.91135 7.88542 6.26919 8.80208 5.82632 9.84375C5.58274 10.4479 5.37791 11.1927 5.21184 12.0781C5.04576 12.9635 4.93504 14.0365 4.87968 15.2969C4.82433 16.5573 4.79111 17.5625 4.78004 18.3125C4.76897 19.0625 4.76897 20.1615 4.78004 21.6094C4.79111 23.0573 4.79665 23.8542 4.79665 24C4.79665 24.1458 4.79111 24.9427 4.78004 26.3906C4.76897 27.8385 4.76897 28.9375 4.78004 29.6875C4.79111 30.4375 4.82433 31.4427 4.87968 32.7031C4.93504 33.9635 5.04576 35.0365 5.21184 35.9219C5.37791 36.8073 5.58274 37.5521 5.82632 38.1562C6.26919 39.1979 6.91135 40.1146 7.7528 40.9062C8.59425 41.6979 9.56856 42.3021 10.6757 42.7188C11.3179 42.9479 12.1095 43.1406 13.0506 43.2969C13.9917 43.4531 15.1321 43.5573 16.4718 43.6094C17.8115 43.6615 18.8799 43.6927 19.677 43.7031C20.4742 43.7135 21.6423 43.7135 23.1812 43.7031C24.7202 43.6927 25.5672 43.6875 25.7222 43.6875C25.8772 43.6875 26.7242 43.6927 28.2632 43.7031C29.8021 43.7135 30.9702 43.7135 31.7674 43.7031C32.5645 43.6927 33.633 43.6615 34.9726 43.6094C36.3123 43.5573 37.4527 43.4531 38.3938 43.2969C39.3349 43.1406 40.1265 42.9479 40.7687 42.7188C41.8759 42.3021 42.8502 41.6979 43.6916 40.9062C44.5331 40.1146 45.1752 39.1979 45.6181 38.1562C45.8617 37.5521 46.0665 36.8073 46.2326 35.9219C46.3987 35.0365 46.5094 33.9635 46.5647 32.7031C46.6201 31.4427 46.6533 30.4375 46.6644 29.6875C46.6755 28.9375 46.6755 27.8385 46.6644 26.3906C46.6533 24.9427 46.6478 24.1458 46.6478 24C46.6478 23.8542 46.6533 23.0573 46.6644 21.6094C46.6755 20.1615 46.6755 19.0625 46.6644 18.3125C46.6533 17.5625 46.6201 16.5573 46.5647 15.2969C46.5094 14.0365 46.3987 12.9635 46.2326 12.0781C46.0665 11.1927 45.8617 10.4479 45.6181 9.84375C45.1752 8.80208 44.5331 7.88542 43.6916 7.09375C42.8502 6.30208 41.8759 5.69792 40.7687 5.28125C40.1265 5.05208 39.3349 4.85938 38.3938 4.70312C37.4527 4.54688 36.3123 4.44271 34.9726 4.39062C33.633 4.33854 32.5645 4.30729 31.7674 4.29688C30.9702 4.28646 29.8021 4.28646 28.2632 4.29688C26.7242 4.30729 25.8772 4.3125 25.7222 4.3125ZM51.2315 24C51.2315 28.7708 51.1761 32.0729 51.0654 33.9062C50.844 38.2396 49.4711 41.5938 46.9467 43.9688C44.4224 46.3438 40.8573 47.6354 36.2514 47.8438C34.3028 47.9479 30.7931 48 25.7222 48C20.6514 48 17.1416 47.9479 15.193 47.8438C10.5872 47.6354 7.02206 46.3438 4.49771 43.9688C1.97336 41.5938 0.600462 38.2396 0.379028 33.9062C0.26831 32.0729 0.212952 28.7708 0.212952 24C0.212952 19.2292 0.26831 15.9271 0.379028 14.0938C0.600462 9.76042 1.97336 6.40625 4.49771 4.03125C7.02206 1.65625 10.5872 0.364583 15.193 0.15625C17.1416 0.0520833 20.6514 0 25.7222 0C30.7931 0 34.3028 0.0520833 36.2514 0.15625C40.8573 0.364583 44.4224 1.65625 46.9467 4.03125C49.4711 6.40625 50.844 9.76042 51.0654 14.0938C51.1761 15.9271 51.2315 19.2292 51.2315 24Z" fill="#838282"/>
</svg>
