<svg width="41" height="42" viewBox="0 0 41 42" fill="none" xmlns="http://www.w3.org/2000/svg">
<rect width="40.8148" height="41.2632" fill="black" fill-opacity="0"/>
<rect width="40.8148" height="41.2632" fill="black" fill-opacity="0"/>
<path d="M40.8148 4.90024C39.2091 5.75997 37.603 6.29687 35.998 6.51254C37.8108 5.15859 39.037 3.24582 39.6759 0.774364C38.0176 1.99914 36.2483 2.83708 34.3665 3.28862C32.7089 1.09651 30.672 0 28.2544 0C25.9411 0 23.9688 1.01532 22.3365 3.04642C20.7052 5.0774 19.8895 7.5326 19.8895 10.4124C19.8895 11.1859 19.9584 11.9814 20.0967 12.798C16.6781 12.5831 13.4712 11.5139 10.4754 9.59046C7.47989 7.66674 4.93761 5.10382 2.8486 1.9017C2.08892 3.5132 1.70894 5.26506 1.70894 7.15626C1.70894 8.94007 2.04556 10.5952 2.71925 12.1211C3.39249 13.6468 4.29912 14.8824 5.43869 15.8282C4.09176 15.7636 2.83146 15.3229 1.6576 14.5062V14.6351C1.6576 17.1498 2.29211 19.3576 3.56093 21.2602C4.82994 23.1626 6.4314 24.3601 8.36493 24.8546C7.63972 25.0907 6.9058 25.2089 6.16354 25.2089C5.68006 25.2089 5.15341 25.1553 4.58376 25.0486C5.11894 27.1329 6.10312 28.8462 7.53595 30.1901C8.96905 31.5334 10.592 32.2257 12.4049 32.2698C9.36635 35.2351 5.90474 36.7178 2.02007 36.7178C1.27753 36.7178 0.604389 36.6757 0 36.5892C3.88476 39.7052 8.16646 41.2632 12.8454 41.2632C15.815 41.2632 18.6034 40.6782 21.2096 39.5066C23.8171 38.3358 26.0441 36.7665 27.8916 34.7996C29.7386 32.8332 31.3317 30.5712 32.6696 28.0138C34.0075 25.4562 35.0042 22.7861 35.6609 20.003C36.3167 17.2194 36.6449 14.4314 36.6449 11.637C36.6449 11.0352 36.6362 10.5841 36.6188 10.2831C38.2595 8.80085 39.6579 7.00597 40.8148 4.90024Z" fill="#838282"/>
</svg>
