<?xml version="1.0" encoding="iso-8859-1"?>
<!-- Generator: Adobe Illustrator 18.0.0, SVG Export Plug-In . SVG Version: 6.00 Build 0)  -->
<!DOCTYPE svg PUBLIC "-//W3C//DTD SVG 1.1//EN" "http://www.w3.org/Graphics/SVG/1.1/DTD/svg11.dtd">
<svg xmlns="http://www.w3.org/2000/svg" xmlns:xlink="http://www.w3.org/1999/xlink" version="1.1" id="Capa_1" x="0px" y="0px" viewBox="0 0 297 297" style="enable-background:new 0 0 297 297;" xml:space="preserve" width="512px" height="512px">
<path d="M47.156,188.376c0,2.861,1.109,14.855,9.212,29.09c6.86,12.052,19.88,26.147,43.843,29.262v40.243  c0,5.538,4.49,10.029,10.029,10.029c5.538,0,10.028-4.491,10.028-10.029v-49.644c0-5.538-4.49-10.029-10.028-10.029  c-16.487,0-28.643-6.465-36.128-19.216c-5.521-9.402-6.922-17.345-6.922-20.844c0-21.168,0-82.294,0-82.294  c0-1.782,0-6.519,8.237-6.519c8.235,0,8.235,4.736,8.235,6.519v34.548c0,2.736,1.117,5.354,3.095,7.246  c1.977,1.891,4.639,2.905,7.374,2.773c0.024-0.011,5.862,0.022,13.244,4.191c11.333,6.402,20.478,19.249,26.445,37.151  c1.752,5.255,7.432,8.097,12.686,6.344c5.255-1.752,8.095-7.432,6.343-12.686c-12.976-38.932-35.79-50.37-49.128-53.701V38.037  c0-2.17,0-5.803,8.236-5.803c8.235,0,8.235,3.633,8.235,5.803v54.73c0,5.539,4.491,10.029,10.029,10.029s10.028-4.49,10.028-10.029  V25.86c0-2.17,0-5.803,8.236-5.803c8.235,0,8.235,3.633,8.235,5.803v66.907c0,5.539,4.491,10.029,10.029,10.029  s10.029-4.49,10.029-10.029v-54.73c0-2.17,0-5.803,8.235-5.803c8.236,0,8.236,3.633,8.236,5.803v71.278  c0,5.538,4.491,10.029,10.029,10.029c5.539,0,10.029-4.491,10.029-10.029V71.849c0-1.782,0-6.519,8.236-6.519  c8.236,0,8.244,4.736,8.244,6.519v116.402c0.011,0.177,0.717,18.087-9.919,29.341c-6.086,6.441-15.135,9.706-26.894,9.706  c-5.539,0-10.029,4.491-10.029,10.029v49.644c0,5.538,4.49,10.029,10.029,10.029c5.538,0,10.028-4.491,10.028-10.029v-40.253  c12.868-1.712,23.415-6.855,31.443-15.35c15.825-16.745,15.516-40.586,15.391-43.899V71.849c0-15.647-11.636-26.577-28.294-26.577  c-2.912,0-5.667,0.342-8.236,0.977v-8.211c0-15.469-11.371-25.86-28.295-25.86c-3.986,0-7.66,0.583-10.954,1.667  C169.732,5.253,160.514,0,148.487,0c-12.028,0-21.245,5.253-25.575,13.844c-3.294-1.084-6.968-1.667-10.954-1.667  c-16.924,0-28.295,10.392-28.295,25.86v41.307c-2.569-0.635-5.324-0.976-8.235-0.976c-16.66,0-28.295,10.93-28.295,26.577  C47.132,104.944,47.156,166.737,47.156,188.376z" fill="#3d1e69"/>
<g>
</g>
<g>
</g>
<g>
</g>
<g>
</g>
<g>
</g>
<g>
</g>
<g>
</g>
<g>
</g>
<g>
</g>
<g>
</g>
<g>
</g>
<g>
</g>
<g>
</g>
<g>
</g>
<g>
</g>
</svg>
