<svg width="156" height="102" viewBox="0 0 156 102" fill="none" xmlns="http://www.w3.org/2000/svg">
<path d="M49.432 55.928L46.984 41.672H46.12L43.816 55.928L32.44 97.112C32.056 98.648 31.528 99.704 30.856 100.28C30.28 100.76 29.224 101 27.688 101H18.04L0.472 4.08799C-0.104 1.49599 0.856 0.199993 3.352 0.199993H11.128L23.224 70.472L26.104 87.752H26.968L30.424 70.472L41.656 29.288C41.848 28.808 42.184 28.328 42.664 27.848C43.24 27.368 43.912 27.128 44.68 27.128H52.456L62.68 70.472L66.28 87.752H67.144L69.88 70.472L80.824 4.08799C81.112 2.552 81.592 1.544 82.264 1.064C83.032 0.487995 84.184 0.199993 85.72 0.199993H92.776L75.496 97.112C75.112 98.648 74.584 99.704 73.912 100.28C73.336 100.856 72.28 101.144 70.744 101.144H60.52L49.432 55.928ZM128.623 101C127.087 101 126.079 100.76 125.599 100.28C125.215 99.704 125.023 98.648 125.023 97.112V92.648H137.551C140.527 92.648 142.399 92.024 143.167 90.776C143.935 89.528 144.319 87.416 144.319 84.44V16.76C144.319 13.784 143.935 11.672 143.167 10.424C142.399 9.176 140.527 8.552 137.551 8.552H119.263V101H107.743V4.08799C107.743 2.552 107.983 1.544 108.463 1.064C109.039 0.487995 110.095 0.199993 111.631 0.199993H142.159C147.151 0.199993 150.655 1.25599 152.671 3.368C154.783 5.384 155.839 8.888 155.839 13.88V87.32C155.839 92.312 154.783 95.864 152.671 97.976C150.655 99.992 147.151 101 142.159 101H128.623Z" fill="#54D1BB"/>
</svg>
